%TF.GenerationSoftware,KiCad,Pcbnew,8.0.2-1*%
%TF.CreationDate,2024-05-21T18:09:58-07:00*%
%TF.ProjectId,pcb,7063622e-6b69-4636-9164-5f7063625858,rev?*%
%TF.SameCoordinates,Original*%
%TF.FileFunction,Soldermask,Bot*%
%TF.FilePolarity,Negative*%
%FSLAX46Y46*%
G04 Gerber Fmt 4.6, Leading zero omitted, Abs format (unit mm)*
G04 Created by KiCad (PCBNEW 8.0.2-1) date 2024-05-21 18:09:58*
%MOMM*%
%LPD*%
G01*
G04 APERTURE LIST*
%ADD10R,1.700000X1.700000*%
%ADD11C,1.700000*%
%ADD12O,1.700000X1.700000*%
G04 APERTURE END LIST*
D10*
%TO.C,U2*%
X139625000Y-68210500D03*
D11*
X139625000Y-70750500D03*
X137085000Y-68210500D03*
X137085000Y-70750500D03*
X134545000Y-68210500D03*
X134545000Y-70750500D03*
X132005000Y-68210500D03*
X132005000Y-70750500D03*
%TD*%
D10*
%TO.C,J2*%
X93920000Y-68500000D03*
D12*
X96460000Y-68500000D03*
X99000000Y-68500000D03*
X101540000Y-68500000D03*
X104080000Y-68500000D03*
%TD*%
D10*
%TO.C,U1*%
X121625000Y-68210500D03*
D11*
X121625000Y-70750500D03*
X119085000Y-68210500D03*
X119085000Y-70750500D03*
X116545000Y-68210500D03*
X116545000Y-70750500D03*
X114005000Y-68210500D03*
X114005000Y-70750500D03*
%TD*%
D10*
%TO.C,J1*%
X94020000Y-63000000D03*
D12*
X94020000Y-60460000D03*
X96560000Y-63000000D03*
X96560000Y-60460000D03*
X99100000Y-63000000D03*
X99100000Y-60460000D03*
X101640000Y-63000000D03*
X101640000Y-60460000D03*
X104180000Y-63000000D03*
X104180000Y-60460000D03*
X106720000Y-63000000D03*
X106720000Y-60460000D03*
X109260000Y-63000000D03*
X109260000Y-60460000D03*
X111800000Y-63000000D03*
X111800000Y-60460000D03*
X114340000Y-63000000D03*
X114340000Y-60460000D03*
X116880000Y-63000000D03*
X116880000Y-60460000D03*
X119420000Y-63000000D03*
X119420000Y-60460000D03*
X121960000Y-63000000D03*
X121960000Y-60460000D03*
X124500000Y-63000000D03*
X124500000Y-60460000D03*
X127040000Y-63000000D03*
X127040000Y-60460000D03*
X129580000Y-63000000D03*
X129580000Y-60460000D03*
X132120000Y-63000000D03*
X132120000Y-60460000D03*
X134660000Y-63000000D03*
X134660000Y-60460000D03*
X137200000Y-63000000D03*
X137200000Y-60460000D03*
X139740000Y-63000000D03*
X139740000Y-60460000D03*
X142280000Y-63000000D03*
X142280000Y-60460000D03*
%TD*%
M02*
