%TF.GenerationSoftware,KiCad,Pcbnew,8.0.2-1*%
%TF.CreationDate,2024-05-21T18:09:58-07:00*%
%TF.ProjectId,pcb,7063622e-6b69-4636-9164-5f7063625858,rev?*%
%TF.SameCoordinates,Original*%
%TF.FileFunction,Copper,L2,Bot*%
%TF.FilePolarity,Positive*%
%FSLAX46Y46*%
G04 Gerber Fmt 4.6, Leading zero omitted, Abs format (unit mm)*
G04 Created by KiCad (PCBNEW 8.0.2-1) date 2024-05-21 18:09:58*
%MOMM*%
%LPD*%
G01*
G04 APERTURE LIST*
%TA.AperFunction,ComponentPad*%
%ADD10R,1.700000X1.700000*%
%TD*%
%TA.AperFunction,ComponentPad*%
%ADD11C,1.700000*%
%TD*%
%TA.AperFunction,ComponentPad*%
%ADD12O,1.700000X1.700000*%
%TD*%
%TA.AperFunction,ViaPad*%
%ADD13C,0.600000*%
%TD*%
%TA.AperFunction,Conductor*%
%ADD14C,0.250000*%
%TD*%
%TA.AperFunction,Conductor*%
%ADD15C,1.000000*%
%TD*%
G04 APERTURE END LIST*
D10*
%TO.P,U2,1,GND*%
%TO.N,GND*%
X139625000Y-68210500D03*
D11*
%TO.P,U2,2,VCC*%
%TO.N,+3V3*%
X139625000Y-70750500D03*
%TO.P,U2,3,CE*%
%TO.N,Net-(J1-GCLK2{slash}GPIO6)*%
X137085000Y-68210500D03*
%TO.P,U2,4,~{CSN}*%
%TO.N,Net-(J1-~{CE1}{slash}GPIO7)*%
X137085000Y-70750500D03*
%TO.P,U2,5,SCK*%
%TO.N,Net-(J1-SCLK0{slash}GPIO11)*%
X134545000Y-68210500D03*
%TO.P,U2,6,MOSI*%
%TO.N,Net-(J1-MOSI0{slash}GPIO10)*%
X134545000Y-70750500D03*
%TO.P,U2,7,MISO*%
%TO.N,Net-(J1-MISO0{slash}GPIO9)*%
X132005000Y-68210500D03*
%TO.P,U2,8,IRQ*%
%TO.N,unconnected-(U2-IRQ-Pad8)*%
X132005000Y-70750500D03*
%TD*%
D10*
%TO.P,J2,1,3V3*%
%TO.N,+3V3*%
X93920000Y-68500000D03*
D12*
%TO.P,J2,2,TX*%
%TO.N,Net-(J1-GPIO14{slash}TXD)*%
X96460000Y-68500000D03*
%TO.P,J2,3,RX*%
%TO.N,Net-(J1-GPIO15{slash}RXD)*%
X99000000Y-68500000D03*
%TO.P,J2,4,GND*%
%TO.N,GND*%
X101540000Y-68500000D03*
%TO.P,J2,5,5V*%
%TO.N,+5V*%
X104080000Y-68500000D03*
%TD*%
D10*
%TO.P,U1,1,GND*%
%TO.N,GND*%
X121625000Y-68210500D03*
D11*
%TO.P,U1,2,VCC*%
%TO.N,+3V3*%
X121625000Y-70750500D03*
%TO.P,U1,3,CE*%
%TO.N,Net-(J1-GCLK1{slash}GPIO5)*%
X119085000Y-68210500D03*
%TO.P,U1,4,~{CSN}*%
%TO.N,Net-(J1-~{CE0}{slash}GPIO8)*%
X119085000Y-70750500D03*
%TO.P,U1,5,SCK*%
%TO.N,Net-(J1-SCLK0{slash}GPIO11)*%
X116545000Y-68210500D03*
%TO.P,U1,6,MOSI*%
%TO.N,Net-(J1-MOSI0{slash}GPIO10)*%
X116545000Y-70750500D03*
%TO.P,U1,7,MISO*%
%TO.N,Net-(J1-MISO0{slash}GPIO9)*%
X114005000Y-68210500D03*
%TO.P,U1,8,IRQ*%
%TO.N,unconnected-(U1-IRQ-Pad8)*%
X114005000Y-70750500D03*
%TD*%
D10*
%TO.P,J1,1,3V3*%
%TO.N,+3V3*%
X94020000Y-63000000D03*
D12*
%TO.P,J1,2,5V*%
%TO.N,+5V*%
X94020000Y-60460000D03*
%TO.P,J1,3,SDA/GPIO2*%
%TO.N,unconnected-(J1-SDA{slash}GPIO2-Pad3)*%
X96560000Y-63000000D03*
%TO.P,J1,4,5V*%
%TO.N,+5V*%
X96560000Y-60460000D03*
%TO.P,J1,5,SCL/GPIO3*%
%TO.N,unconnected-(J1-SCL{slash}GPIO3-Pad5)*%
X99100000Y-63000000D03*
%TO.P,J1,6,GND*%
%TO.N,GND*%
X99100000Y-60460000D03*
%TO.P,J1,7,GCLK0/GPIO4*%
%TO.N,unconnected-(J1-GCLK0{slash}GPIO4-Pad7)*%
X101640000Y-63000000D03*
%TO.P,J1,8,GPIO14/TXD*%
%TO.N,Net-(J1-GPIO14{slash}TXD)*%
X101640000Y-60460000D03*
%TO.P,J1,9,GND*%
%TO.N,GND*%
X104180000Y-63000000D03*
%TO.P,J1,10,GPIO15/RXD*%
%TO.N,Net-(J1-GPIO15{slash}RXD)*%
X104180000Y-60460000D03*
%TO.P,J1,11,GPIO17*%
%TO.N,unconnected-(J1-GPIO17-Pad11)*%
X106720000Y-63000000D03*
%TO.P,J1,12,GPIO18/PWM0*%
%TO.N,unconnected-(J1-GPIO18{slash}PWM0-Pad12)*%
X106720000Y-60460000D03*
%TO.P,J1,13,GPIO27*%
%TO.N,unconnected-(J1-GPIO27-Pad13)*%
X109260000Y-63000000D03*
%TO.P,J1,14,GND*%
%TO.N,GND*%
X109260000Y-60460000D03*
%TO.P,J1,15,GPIO22*%
%TO.N,unconnected-(J1-GPIO22-Pad15)*%
X111800000Y-63000000D03*
%TO.P,J1,16,GPIO23*%
%TO.N,unconnected-(J1-GPIO23-Pad16)*%
X111800000Y-60460000D03*
%TO.P,J1,17,3V3*%
%TO.N,+3V3*%
X114340000Y-63000000D03*
%TO.P,J1,18,GPIO24*%
%TO.N,unconnected-(J1-GPIO24-Pad18)*%
X114340000Y-60460000D03*
%TO.P,J1,19,MOSI0/GPIO10*%
%TO.N,Net-(J1-MOSI0{slash}GPIO10)*%
X116880000Y-63000000D03*
%TO.P,J1,20,GND*%
%TO.N,GND*%
X116880000Y-60460000D03*
%TO.P,J1,21,MISO0/GPIO9*%
%TO.N,Net-(J1-MISO0{slash}GPIO9)*%
X119420000Y-63000000D03*
%TO.P,J1,22,GPIO25*%
%TO.N,unconnected-(J1-GPIO25-Pad22)*%
X119420000Y-60460000D03*
%TO.P,J1,23,SCLK0/GPIO11*%
%TO.N,Net-(J1-SCLK0{slash}GPIO11)*%
X121960000Y-63000000D03*
%TO.P,J1,24,~{CE0}/GPIO8*%
%TO.N,Net-(J1-~{CE0}{slash}GPIO8)*%
X121960000Y-60460000D03*
%TO.P,J1,25,GND*%
%TO.N,GND*%
X124500000Y-63000000D03*
%TO.P,J1,26,~{CE1}/GPIO7*%
%TO.N,Net-(J1-~{CE1}{slash}GPIO7)*%
X124500000Y-60460000D03*
%TO.P,J1,27,ID_SD/GPIO0*%
%TO.N,unconnected-(J1-ID_SD{slash}GPIO0-Pad27)*%
X127040000Y-63000000D03*
%TO.P,J1,28,ID_SC/GPIO1*%
%TO.N,unconnected-(J1-ID_SC{slash}GPIO1-Pad28)*%
X127040000Y-60460000D03*
%TO.P,J1,29,GCLK1/GPIO5*%
%TO.N,Net-(J1-GCLK1{slash}GPIO5)*%
X129580000Y-63000000D03*
%TO.P,J1,30,GND*%
%TO.N,GND*%
X129580000Y-60460000D03*
%TO.P,J1,31,GCLK2/GPIO6*%
%TO.N,Net-(J1-GCLK2{slash}GPIO6)*%
X132120000Y-63000000D03*
%TO.P,J1,32,PWM0/GPIO12*%
%TO.N,unconnected-(J1-PWM0{slash}GPIO12-Pad32)*%
X132120000Y-60460000D03*
%TO.P,J1,33,PWM1/GPIO13*%
%TO.N,unconnected-(J1-PWM1{slash}GPIO13-Pad33)*%
X134660000Y-63000000D03*
%TO.P,J1,34,GND*%
%TO.N,GND*%
X134660000Y-60460000D03*
%TO.P,J1,35,GPIO19/MISO1*%
%TO.N,unconnected-(J1-GPIO19{slash}MISO1-Pad35)*%
X137200000Y-63000000D03*
%TO.P,J1,36,GPIO16*%
%TO.N,unconnected-(J1-GPIO16-Pad36)*%
X137200000Y-60460000D03*
%TO.P,J1,37,GPIO26*%
%TO.N,unconnected-(J1-GPIO26-Pad37)*%
X139740000Y-63000000D03*
%TO.P,J1,38,GPIO20/MOSI1*%
%TO.N,unconnected-(J1-GPIO20{slash}MOSI1-Pad38)*%
X139740000Y-60460000D03*
%TO.P,J1,39,GND*%
%TO.N,GND*%
X142280000Y-63000000D03*
%TO.P,J1,40,GPIO21/SCLK1*%
%TO.N,unconnected-(J1-GPIO21{slash}SCLK1-Pad40)*%
X142280000Y-60460000D03*
%TD*%
D13*
%TO.N,GND*%
X134600000Y-76800000D03*
X116600000Y-76800000D03*
%TO.N,Net-(J1-GPIO14{slash}TXD)*%
X97800000Y-63700000D03*
%TO.N,Net-(J1-GCLK2{slash}GPIO6)*%
X135900000Y-65200000D03*
%TO.N,Net-(J1-~{CE1}{slash}GPIO7)*%
X138500000Y-65100000D03*
%TO.N,Net-(J1-~{CE0}{slash}GPIO8)*%
X120400000Y-65900000D03*
%TO.N,Net-(J1-MOSI0{slash}GPIO10)*%
X115565808Y-65765808D03*
X125600000Y-74200000D03*
%TO.N,Net-(J1-SCLK0{slash}GPIO11)*%
X118800000Y-65800000D03*
X125700000Y-65500000D03*
X130205000Y-65500000D03*
%TO.N,Net-(J1-MISO0{slash}GPIO9)*%
X116600000Y-65800000D03*
X125600000Y-69500000D03*
%TD*%
D14*
%TO.N,Net-(J1-GPIO14{slash}TXD)*%
X97800000Y-67160000D02*
X96460000Y-68500000D01*
X97800000Y-63700000D02*
X97800000Y-67160000D01*
%TO.N,Net-(J1-GCLK2{slash}GPIO6)*%
X135900000Y-67025500D02*
X137085000Y-68210500D01*
X137085000Y-67965000D02*
X137085000Y-68210500D01*
X135900000Y-65200000D02*
X135900000Y-67025500D01*
D15*
%TO.N,+5V*%
X94020000Y-60460000D02*
X93460000Y-60460000D01*
X94020000Y-60460000D02*
X96560000Y-60460000D01*
D14*
%TO.N,Net-(J1-~{CE1}{slash}GPIO7)*%
X125865000Y-61825000D02*
X130066701Y-61825000D01*
X138500000Y-62638299D02*
X138500000Y-65100000D01*
X137686701Y-61825000D02*
X138500000Y-62638299D01*
X130066701Y-61825000D02*
X137686701Y-61825000D01*
X124500000Y-60460000D02*
X125865000Y-61825000D01*
%TO.N,Net-(J1-~{CE0}{slash}GPIO8)*%
X120400000Y-65900000D02*
X120721701Y-65900000D01*
X120721701Y-65900000D02*
X120721701Y-61698299D01*
X120721701Y-61698299D02*
X121960000Y-60460000D01*
%TO.N,Net-(J1-MOSI0{slash}GPIO10)*%
X115370000Y-69575500D02*
X116545000Y-70750500D01*
X115370000Y-65961616D02*
X115370000Y-69575500D01*
X125500000Y-74100000D02*
X125600000Y-74200000D01*
X116545000Y-70750500D02*
X116545000Y-72945000D01*
X115565808Y-65765808D02*
X115370000Y-65961616D01*
X116545000Y-72945000D02*
X117700000Y-74100000D01*
X117700000Y-74100000D02*
X118100000Y-74100000D01*
X118100000Y-74100000D02*
X125500000Y-74100000D01*
%TO.N,Net-(J1-GPIO15{slash}RXD)*%
X101153299Y-61825000D02*
X100400000Y-62578299D01*
X102815000Y-61825000D02*
X101153299Y-61825000D01*
X100400000Y-62578299D02*
X100400000Y-67100000D01*
X100400000Y-67100000D02*
X99000000Y-68500000D01*
X104180000Y-60460000D02*
X102815000Y-61825000D01*
%TO.N,Net-(J1-SCLK0{slash}GPIO11)*%
X121755500Y-63000000D02*
X121960000Y-63000000D01*
X116545000Y-68210500D02*
X118800000Y-65955500D01*
X118800000Y-65955500D02*
X118800000Y-65800000D01*
X130205000Y-65500000D02*
X125700000Y-65500000D01*
%TO.N,Net-(J1-MISO0{slash}GPIO9)*%
X119600000Y-63180000D02*
X119600000Y-66185500D01*
X120450000Y-67035500D02*
X120450000Y-69385500D01*
X119600000Y-66185500D02*
X120450000Y-67035500D01*
X116600000Y-65800000D02*
X116620000Y-65800000D01*
X119420000Y-63000000D02*
X119600000Y-63180000D01*
X120564500Y-69500000D02*
X125600000Y-69500000D01*
X119420000Y-63000000D02*
X119775000Y-63355000D01*
X116620000Y-65800000D02*
X119420000Y-63000000D01*
X120450000Y-69385500D02*
X120564500Y-69500000D01*
X114209500Y-68210500D02*
X114005000Y-68210500D01*
%TD*%
%TA.AperFunction,Conductor*%
%TO.N,GND*%
G36*
X145442539Y-56020185D02*
G01*
X145488294Y-56072989D01*
X145499500Y-56124500D01*
X145499500Y-98375500D01*
X145479815Y-98442539D01*
X145427011Y-98488294D01*
X145375500Y-98499500D01*
X90124500Y-98499500D01*
X90057461Y-98479815D01*
X90011706Y-98427011D01*
X90000500Y-98375500D01*
X90000500Y-60558543D01*
X92459499Y-60558543D01*
X92497947Y-60751829D01*
X92497950Y-60751839D01*
X92573364Y-60933907D01*
X92573371Y-60933920D01*
X92682860Y-61097781D01*
X92682863Y-61097785D01*
X92822217Y-61237139D01*
X92931710Y-61310299D01*
X92986086Y-61346632D01*
X92986089Y-61346633D01*
X92991461Y-61349505D01*
X92990713Y-61350903D01*
X93021708Y-61371604D01*
X93103430Y-61453326D01*
X93136915Y-61514649D01*
X93131931Y-61584341D01*
X93090059Y-61640274D01*
X93059083Y-61657189D01*
X92927669Y-61706203D01*
X92927664Y-61706206D01*
X92812455Y-61792452D01*
X92812452Y-61792455D01*
X92726206Y-61907664D01*
X92726202Y-61907671D01*
X92675908Y-62042517D01*
X92669501Y-62102116D01*
X92669500Y-62102135D01*
X92669500Y-63897870D01*
X92669501Y-63897876D01*
X92675908Y-63957483D01*
X92726202Y-64092328D01*
X92726206Y-64092335D01*
X92812452Y-64207544D01*
X92812455Y-64207547D01*
X92927664Y-64293793D01*
X92927671Y-64293797D01*
X93062517Y-64344091D01*
X93062516Y-64344091D01*
X93069444Y-64344835D01*
X93122127Y-64350500D01*
X94917872Y-64350499D01*
X94977483Y-64344091D01*
X95112331Y-64293796D01*
X95227546Y-64207546D01*
X95313796Y-64092331D01*
X95362810Y-63960916D01*
X95404681Y-63904984D01*
X95470145Y-63880566D01*
X95538418Y-63895417D01*
X95566673Y-63916569D01*
X95688599Y-64038495D01*
X95785384Y-64106265D01*
X95882165Y-64174032D01*
X95882167Y-64174033D01*
X95882170Y-64174035D01*
X96096337Y-64273903D01*
X96096343Y-64273904D01*
X96096344Y-64273905D01*
X96129347Y-64282748D01*
X96324592Y-64335063D01*
X96501034Y-64350500D01*
X96559999Y-64355659D01*
X96560000Y-64355659D01*
X96560001Y-64355659D01*
X96618966Y-64350500D01*
X96795408Y-64335063D01*
X97018408Y-64275311D01*
X97088257Y-64276974D01*
X97146119Y-64316137D01*
X97173623Y-64380365D01*
X97174500Y-64395086D01*
X97174500Y-66849547D01*
X97154815Y-66916586D01*
X97138181Y-66937228D01*
X96915646Y-67159762D01*
X96854323Y-67193247D01*
X96795872Y-67191856D01*
X96695413Y-67164938D01*
X96695403Y-67164936D01*
X96460001Y-67144341D01*
X96459999Y-67144341D01*
X96224596Y-67164936D01*
X96224586Y-67164938D01*
X95996344Y-67226094D01*
X95996335Y-67226098D01*
X95782171Y-67325964D01*
X95782169Y-67325965D01*
X95588600Y-67461503D01*
X95466673Y-67583430D01*
X95405350Y-67616914D01*
X95335658Y-67611930D01*
X95279725Y-67570058D01*
X95262810Y-67539081D01*
X95213797Y-67407671D01*
X95213793Y-67407664D01*
X95127547Y-67292455D01*
X95127544Y-67292452D01*
X95012335Y-67206206D01*
X95012328Y-67206202D01*
X94877482Y-67155908D01*
X94877483Y-67155908D01*
X94817883Y-67149501D01*
X94817881Y-67149500D01*
X94817873Y-67149500D01*
X94817864Y-67149500D01*
X93022129Y-67149500D01*
X93022123Y-67149501D01*
X92962516Y-67155908D01*
X92827671Y-67206202D01*
X92827664Y-67206206D01*
X92712455Y-67292452D01*
X92712452Y-67292455D01*
X92626206Y-67407664D01*
X92626202Y-67407671D01*
X92575908Y-67542517D01*
X92569501Y-67602116D01*
X92569500Y-67602135D01*
X92569500Y-69397870D01*
X92569501Y-69397876D01*
X92575908Y-69457483D01*
X92626202Y-69592328D01*
X92626206Y-69592335D01*
X92712452Y-69707544D01*
X92712455Y-69707547D01*
X92827664Y-69793793D01*
X92827671Y-69793797D01*
X92962517Y-69844091D01*
X92962516Y-69844091D01*
X92969444Y-69844835D01*
X93022127Y-69850500D01*
X94817872Y-69850499D01*
X94877483Y-69844091D01*
X95012331Y-69793796D01*
X95127546Y-69707546D01*
X95213796Y-69592331D01*
X95262810Y-69460916D01*
X95304681Y-69404984D01*
X95370145Y-69380566D01*
X95438418Y-69395417D01*
X95466673Y-69416569D01*
X95588599Y-69538495D01*
X95668999Y-69594792D01*
X95782165Y-69674032D01*
X95782167Y-69674033D01*
X95782170Y-69674035D01*
X95996337Y-69773903D01*
X96224592Y-69835063D01*
X96401034Y-69850500D01*
X96459999Y-69855659D01*
X96460000Y-69855659D01*
X96460001Y-69855659D01*
X96518966Y-69850500D01*
X96695408Y-69835063D01*
X96923663Y-69773903D01*
X97137830Y-69674035D01*
X97331401Y-69538495D01*
X97498495Y-69371401D01*
X97628425Y-69185842D01*
X97683002Y-69142217D01*
X97752500Y-69135023D01*
X97814855Y-69166546D01*
X97831575Y-69185842D01*
X97961500Y-69371395D01*
X97961505Y-69371401D01*
X98128599Y-69538495D01*
X98208999Y-69594792D01*
X98322165Y-69674032D01*
X98322167Y-69674033D01*
X98322170Y-69674035D01*
X98536337Y-69773903D01*
X98764592Y-69835063D01*
X98941034Y-69850500D01*
X98999999Y-69855659D01*
X99000000Y-69855659D01*
X99000001Y-69855659D01*
X99058966Y-69850500D01*
X99235408Y-69835063D01*
X99463663Y-69773903D01*
X99677830Y-69674035D01*
X99871401Y-69538495D01*
X100038495Y-69371401D01*
X100168730Y-69185405D01*
X100223307Y-69141781D01*
X100292805Y-69134587D01*
X100355160Y-69166110D01*
X100371879Y-69185405D01*
X100501890Y-69371078D01*
X100668917Y-69538105D01*
X100862421Y-69673600D01*
X101076507Y-69773429D01*
X101076516Y-69773433D01*
X101290000Y-69830634D01*
X101290000Y-68933012D01*
X101347007Y-68965925D01*
X101474174Y-69000000D01*
X101605826Y-69000000D01*
X101732993Y-68965925D01*
X101790000Y-68933012D01*
X101790000Y-69830633D01*
X102003483Y-69773433D01*
X102003492Y-69773429D01*
X102217578Y-69673600D01*
X102411082Y-69538105D01*
X102578105Y-69371082D01*
X102708119Y-69185405D01*
X102762696Y-69141781D01*
X102832195Y-69134588D01*
X102894549Y-69166110D01*
X102911269Y-69185405D01*
X103041505Y-69371401D01*
X103208599Y-69538495D01*
X103288999Y-69594792D01*
X103402165Y-69674032D01*
X103402167Y-69674033D01*
X103402170Y-69674035D01*
X103616337Y-69773903D01*
X103844592Y-69835063D01*
X104021034Y-69850500D01*
X104079999Y-69855659D01*
X104080000Y-69855659D01*
X104080001Y-69855659D01*
X104138966Y-69850500D01*
X104315408Y-69835063D01*
X104543663Y-69773903D01*
X104757830Y-69674035D01*
X104951401Y-69538495D01*
X105118495Y-69371401D01*
X105254035Y-69177830D01*
X105353903Y-68963663D01*
X105415063Y-68735408D01*
X105435659Y-68500000D01*
X105415063Y-68264592D01*
X105353903Y-68036337D01*
X105254035Y-67822171D01*
X105248731Y-67814595D01*
X105118494Y-67628597D01*
X104951402Y-67461506D01*
X104951395Y-67461501D01*
X104757834Y-67325967D01*
X104757830Y-67325965D01*
X104689965Y-67294319D01*
X104543663Y-67226097D01*
X104543659Y-67226096D01*
X104543655Y-67226094D01*
X104315413Y-67164938D01*
X104315403Y-67164936D01*
X104080001Y-67144341D01*
X104079999Y-67144341D01*
X103844596Y-67164936D01*
X103844586Y-67164938D01*
X103616344Y-67226094D01*
X103616335Y-67226098D01*
X103402171Y-67325964D01*
X103402169Y-67325965D01*
X103208597Y-67461505D01*
X103041508Y-67628594D01*
X102911269Y-67814595D01*
X102856692Y-67858219D01*
X102787193Y-67865412D01*
X102724839Y-67833890D01*
X102708119Y-67814594D01*
X102578113Y-67628926D01*
X102578108Y-67628920D01*
X102411082Y-67461894D01*
X102217578Y-67326399D01*
X102003492Y-67226570D01*
X102003486Y-67226567D01*
X101790000Y-67169364D01*
X101790000Y-68066988D01*
X101732993Y-68034075D01*
X101605826Y-68000000D01*
X101474174Y-68000000D01*
X101347007Y-68034075D01*
X101290000Y-68066988D01*
X101290000Y-67169364D01*
X101289999Y-67169363D01*
X101181593Y-67198411D01*
X101111744Y-67196748D01*
X101053881Y-67157585D01*
X101026377Y-67093357D01*
X101025500Y-67078636D01*
X101025500Y-64395086D01*
X101045185Y-64328047D01*
X101097989Y-64282292D01*
X101167147Y-64272348D01*
X101181587Y-64275309D01*
X101404592Y-64335063D01*
X101581034Y-64350500D01*
X101639999Y-64355659D01*
X101640000Y-64355659D01*
X101640001Y-64355659D01*
X101698966Y-64350500D01*
X101875408Y-64335063D01*
X102103663Y-64273903D01*
X102317830Y-64174035D01*
X102511401Y-64038495D01*
X102678495Y-63871401D01*
X102808730Y-63685405D01*
X102863307Y-63641781D01*
X102932805Y-63634587D01*
X102995160Y-63666110D01*
X103011879Y-63685405D01*
X103141890Y-63871078D01*
X103308917Y-64038105D01*
X103502421Y-64173600D01*
X103716507Y-64273429D01*
X103716516Y-64273433D01*
X103930000Y-64330634D01*
X103930000Y-63433012D01*
X103987007Y-63465925D01*
X104114174Y-63500000D01*
X104245826Y-63500000D01*
X104372993Y-63465925D01*
X104430000Y-63433012D01*
X104430000Y-64330634D01*
X104643483Y-64273433D01*
X104643492Y-64273429D01*
X104857578Y-64173600D01*
X105051082Y-64038105D01*
X105218105Y-63871082D01*
X105348119Y-63685405D01*
X105402696Y-63641781D01*
X105472195Y-63634588D01*
X105534549Y-63666110D01*
X105551269Y-63685405D01*
X105681505Y-63871401D01*
X105848599Y-64038495D01*
X105945384Y-64106265D01*
X106042165Y-64174032D01*
X106042167Y-64174033D01*
X106042170Y-64174035D01*
X106256337Y-64273903D01*
X106256343Y-64273904D01*
X106256344Y-64273905D01*
X106289347Y-64282748D01*
X106484592Y-64335063D01*
X106661034Y-64350500D01*
X106719999Y-64355659D01*
X106720000Y-64355659D01*
X106720001Y-64355659D01*
X106778966Y-64350500D01*
X106955408Y-64335063D01*
X107183663Y-64273903D01*
X107397830Y-64174035D01*
X107591401Y-64038495D01*
X107758495Y-63871401D01*
X107888425Y-63685842D01*
X107943002Y-63642217D01*
X108012500Y-63635023D01*
X108074855Y-63666546D01*
X108091575Y-63685842D01*
X108221281Y-63871082D01*
X108221505Y-63871401D01*
X108388599Y-64038495D01*
X108485384Y-64106265D01*
X108582165Y-64174032D01*
X108582167Y-64174033D01*
X108582170Y-64174035D01*
X108796337Y-64273903D01*
X108796343Y-64273904D01*
X108796344Y-64273905D01*
X108829347Y-64282748D01*
X109024592Y-64335063D01*
X109201034Y-64350500D01*
X109259999Y-64355659D01*
X109260000Y-64355659D01*
X109260001Y-64355659D01*
X109318966Y-64350500D01*
X109495408Y-64335063D01*
X109723663Y-64273903D01*
X109937830Y-64174035D01*
X110131401Y-64038495D01*
X110298495Y-63871401D01*
X110428425Y-63685842D01*
X110483002Y-63642217D01*
X110552500Y-63635023D01*
X110614855Y-63666546D01*
X110631575Y-63685842D01*
X110761281Y-63871082D01*
X110761505Y-63871401D01*
X110928599Y-64038495D01*
X111025384Y-64106265D01*
X111122165Y-64174032D01*
X111122167Y-64174033D01*
X111122170Y-64174035D01*
X111336337Y-64273903D01*
X111336343Y-64273904D01*
X111336344Y-64273905D01*
X111369347Y-64282748D01*
X111564592Y-64335063D01*
X111741034Y-64350500D01*
X111799999Y-64355659D01*
X111800000Y-64355659D01*
X111800001Y-64355659D01*
X111858966Y-64350500D01*
X112035408Y-64335063D01*
X112263663Y-64273903D01*
X112477830Y-64174035D01*
X112671401Y-64038495D01*
X112838495Y-63871401D01*
X112968425Y-63685842D01*
X113023002Y-63642217D01*
X113092500Y-63635023D01*
X113154855Y-63666546D01*
X113171575Y-63685842D01*
X113301281Y-63871082D01*
X113301505Y-63871401D01*
X113468599Y-64038495D01*
X113565384Y-64106265D01*
X113662165Y-64174032D01*
X113662167Y-64174033D01*
X113662170Y-64174035D01*
X113876337Y-64273903D01*
X113876343Y-64273904D01*
X113876344Y-64273905D01*
X113909347Y-64282748D01*
X114104592Y-64335063D01*
X114281034Y-64350500D01*
X114339999Y-64355659D01*
X114340000Y-64355659D01*
X114340001Y-64355659D01*
X114398966Y-64350500D01*
X114575408Y-64335063D01*
X114803663Y-64273903D01*
X115017830Y-64174035D01*
X115211401Y-64038495D01*
X115378495Y-63871401D01*
X115508425Y-63685842D01*
X115563002Y-63642217D01*
X115632500Y-63635023D01*
X115694855Y-63666546D01*
X115711575Y-63685842D01*
X115841281Y-63871082D01*
X115841505Y-63871401D01*
X116008599Y-64038495D01*
X116105384Y-64106265D01*
X116202165Y-64174032D01*
X116202167Y-64174033D01*
X116202170Y-64174035D01*
X116416337Y-64273903D01*
X116416343Y-64273904D01*
X116416344Y-64273905D01*
X116449347Y-64282748D01*
X116644592Y-64335063D01*
X116821034Y-64350500D01*
X116879999Y-64355659D01*
X116880388Y-64355659D01*
X116880553Y-64355707D01*
X116885394Y-64356131D01*
X116885308Y-64357103D01*
X116947427Y-64375344D01*
X116993182Y-64428148D01*
X117003126Y-64497306D01*
X116974101Y-64560862D01*
X116968069Y-64567340D01*
X116564160Y-64971248D01*
X116502837Y-65004733D01*
X116490363Y-65006787D01*
X116420750Y-65014630D01*
X116250476Y-65074211D01*
X116250472Y-65074213D01*
X116176082Y-65120955D01*
X116108845Y-65139955D01*
X116044139Y-65120955D01*
X115915331Y-65040019D01*
X115745062Y-64980439D01*
X115745057Y-64980438D01*
X115565812Y-64960243D01*
X115565804Y-64960243D01*
X115386558Y-64980438D01*
X115386553Y-64980439D01*
X115216284Y-65040019D01*
X115063545Y-65135992D01*
X114935992Y-65263545D01*
X114840019Y-65416284D01*
X114780439Y-65586553D01*
X114780438Y-65586558D01*
X114760243Y-65765804D01*
X114760243Y-65765813D01*
X114762043Y-65781800D01*
X114760440Y-65819862D01*
X114744500Y-65900009D01*
X114744500Y-66870581D01*
X114724815Y-66937620D01*
X114672011Y-66983375D01*
X114602853Y-66993319D01*
X114568095Y-66982963D01*
X114548646Y-66973894D01*
X114468663Y-66936597D01*
X114468659Y-66936596D01*
X114468655Y-66936594D01*
X114240413Y-66875438D01*
X114240403Y-66875436D01*
X114005001Y-66854841D01*
X114004999Y-66854841D01*
X113769596Y-66875436D01*
X113769586Y-66875438D01*
X113541344Y-66936594D01*
X113541335Y-66936598D01*
X113327171Y-67036464D01*
X113327169Y-67036465D01*
X113133597Y-67172005D01*
X112966505Y-67339097D01*
X112830965Y-67532669D01*
X112830964Y-67532671D01*
X112731098Y-67746835D01*
X112731094Y-67746844D01*
X112669938Y-67975086D01*
X112669936Y-67975096D01*
X112649341Y-68210499D01*
X112649341Y-68210500D01*
X112669936Y-68445903D01*
X112669938Y-68445913D01*
X112731094Y-68674155D01*
X112731096Y-68674159D01*
X112731097Y-68674163D01*
X112811004Y-68845523D01*
X112830965Y-68888330D01*
X112830967Y-68888334D01*
X112907573Y-68997738D01*
X112966501Y-69081896D01*
X112966506Y-69081902D01*
X113133597Y-69248993D01*
X113133603Y-69248998D01*
X113319158Y-69378925D01*
X113362783Y-69433502D01*
X113369977Y-69503000D01*
X113338454Y-69565355D01*
X113319158Y-69582075D01*
X113133597Y-69712005D01*
X112966505Y-69879097D01*
X112830965Y-70072669D01*
X112830964Y-70072671D01*
X112731098Y-70286835D01*
X112731094Y-70286844D01*
X112669938Y-70515086D01*
X112669936Y-70515096D01*
X112649341Y-70750499D01*
X112649341Y-70750500D01*
X112669936Y-70985903D01*
X112669938Y-70985913D01*
X112731094Y-71214155D01*
X112731096Y-71214159D01*
X112731097Y-71214163D01*
X112735000Y-71222532D01*
X112830965Y-71428330D01*
X112830967Y-71428334D01*
X112939281Y-71583021D01*
X112966505Y-71621901D01*
X113133599Y-71788995D01*
X113230384Y-71856765D01*
X113327165Y-71924532D01*
X113327167Y-71924533D01*
X113327170Y-71924535D01*
X113541337Y-72024403D01*
X113541343Y-72024404D01*
X113541344Y-72024405D01*
X113596285Y-72039126D01*
X113769592Y-72085563D01*
X113957918Y-72102039D01*
X114004999Y-72106159D01*
X114005000Y-72106159D01*
X114005001Y-72106159D01*
X114044234Y-72102726D01*
X114240408Y-72085563D01*
X114468663Y-72024403D01*
X114682830Y-71924535D01*
X114876401Y-71788995D01*
X115043495Y-71621901D01*
X115173425Y-71436342D01*
X115228002Y-71392717D01*
X115297500Y-71385523D01*
X115359855Y-71417046D01*
X115376575Y-71436342D01*
X115506500Y-71621895D01*
X115506505Y-71621901D01*
X115673599Y-71788995D01*
X115866624Y-71924153D01*
X115910248Y-71978728D01*
X115919500Y-72025726D01*
X115919500Y-73006611D01*
X115943535Y-73127444D01*
X115943540Y-73127461D01*
X115990685Y-73241280D01*
X115990690Y-73241289D01*
X116024914Y-73292507D01*
X116024915Y-73292509D01*
X116059140Y-73343731D01*
X116059141Y-73343732D01*
X116059142Y-73343733D01*
X116146267Y-73430858D01*
X116146268Y-73430858D01*
X116153335Y-73437925D01*
X116153334Y-73437925D01*
X116153338Y-73437928D01*
X117301263Y-74585855D01*
X117301267Y-74585858D01*
X117403710Y-74654309D01*
X117403711Y-74654309D01*
X117403715Y-74654312D01*
X117470396Y-74681931D01*
X117470398Y-74681933D01*
X117517543Y-74701461D01*
X117517548Y-74701463D01*
X117537597Y-74705451D01*
X117571196Y-74712134D01*
X117638392Y-74725501D01*
X117638394Y-74725501D01*
X117767721Y-74725501D01*
X117767741Y-74725500D01*
X118038394Y-74725500D01*
X124942060Y-74725500D01*
X125009099Y-74745185D01*
X125029741Y-74761819D01*
X125097738Y-74829816D01*
X125250478Y-74925789D01*
X125420745Y-74985368D01*
X125420750Y-74985369D01*
X125599996Y-75005565D01*
X125600000Y-75005565D01*
X125600004Y-75005565D01*
X125779249Y-74985369D01*
X125779252Y-74985368D01*
X125779255Y-74985368D01*
X125949522Y-74925789D01*
X126102262Y-74829816D01*
X126229816Y-74702262D01*
X126325789Y-74549522D01*
X126385368Y-74379255D01*
X126405565Y-74200000D01*
X126385368Y-74020745D01*
X126325789Y-73850478D01*
X126229816Y-73697738D01*
X126102262Y-73570184D01*
X125949523Y-73474211D01*
X125779254Y-73414631D01*
X125779249Y-73414630D01*
X125600004Y-73394435D01*
X125599996Y-73394435D01*
X125420750Y-73414630D01*
X125420737Y-73414633D01*
X125269539Y-73467541D01*
X125228584Y-73474500D01*
X118010453Y-73474500D01*
X117943414Y-73454815D01*
X117922772Y-73438181D01*
X117206819Y-72722228D01*
X117173334Y-72660905D01*
X117170500Y-72634547D01*
X117170500Y-72025726D01*
X117190185Y-71958687D01*
X117223374Y-71924154D01*
X117416401Y-71788995D01*
X117583495Y-71621901D01*
X117713425Y-71436342D01*
X117768002Y-71392717D01*
X117837500Y-71385523D01*
X117899855Y-71417046D01*
X117916575Y-71436342D01*
X118046500Y-71621895D01*
X118046505Y-71621901D01*
X118213599Y-71788995D01*
X118310384Y-71856765D01*
X118407165Y-71924532D01*
X118407167Y-71924533D01*
X118407170Y-71924535D01*
X118621337Y-72024403D01*
X118621343Y-72024404D01*
X118621344Y-72024405D01*
X118676285Y-72039126D01*
X118849592Y-72085563D01*
X119037918Y-72102039D01*
X119084999Y-72106159D01*
X119085000Y-72106159D01*
X119085001Y-72106159D01*
X119124234Y-72102726D01*
X119320408Y-72085563D01*
X119548663Y-72024403D01*
X119762830Y-71924535D01*
X119956401Y-71788995D01*
X120123495Y-71621901D01*
X120253425Y-71436342D01*
X120308002Y-71392717D01*
X120377500Y-71385523D01*
X120439855Y-71417046D01*
X120456575Y-71436342D01*
X120586500Y-71621895D01*
X120586505Y-71621901D01*
X120753599Y-71788995D01*
X120850384Y-71856765D01*
X120947165Y-71924532D01*
X120947167Y-71924533D01*
X120947170Y-71924535D01*
X121161337Y-72024403D01*
X121161343Y-72024404D01*
X121161344Y-72024405D01*
X121216285Y-72039126D01*
X121389592Y-72085563D01*
X121577918Y-72102039D01*
X121624999Y-72106159D01*
X121625000Y-72106159D01*
X121625001Y-72106159D01*
X121664234Y-72102726D01*
X121860408Y-72085563D01*
X122088663Y-72024403D01*
X122302830Y-71924535D01*
X122496401Y-71788995D01*
X122663495Y-71621901D01*
X122799035Y-71428330D01*
X122898903Y-71214163D01*
X122960063Y-70985908D01*
X122980659Y-70750500D01*
X122960063Y-70515092D01*
X122898903Y-70286837D01*
X122897502Y-70281607D01*
X122899907Y-70280962D01*
X122896486Y-70221451D01*
X122930825Y-70160602D01*
X122992610Y-70127977D01*
X123017272Y-70125500D01*
X125055145Y-70125500D01*
X125121116Y-70144505D01*
X125250478Y-70225789D01*
X125401023Y-70278467D01*
X125420745Y-70285368D01*
X125420750Y-70285369D01*
X125599996Y-70305565D01*
X125600000Y-70305565D01*
X125600004Y-70305565D01*
X125779249Y-70285369D01*
X125779252Y-70285368D01*
X125779255Y-70285368D01*
X125949522Y-70225789D01*
X126102262Y-70129816D01*
X126229816Y-70002262D01*
X126325789Y-69849522D01*
X126385368Y-69679255D01*
X126385956Y-69674035D01*
X126405565Y-69500003D01*
X126405565Y-69499996D01*
X126385369Y-69320750D01*
X126385368Y-69320745D01*
X126360263Y-69248998D01*
X126325789Y-69150478D01*
X126320324Y-69141781D01*
X126229815Y-68997737D01*
X126102262Y-68870184D01*
X125949523Y-68774211D01*
X125779254Y-68714631D01*
X125779249Y-68714630D01*
X125600004Y-68694435D01*
X125599996Y-68694435D01*
X125420750Y-68714630D01*
X125420745Y-68714631D01*
X125250476Y-68774211D01*
X125121117Y-68855494D01*
X125055145Y-68874500D01*
X123099000Y-68874500D01*
X123031961Y-68854815D01*
X122986206Y-68802011D01*
X122975000Y-68750500D01*
X122975000Y-68460500D01*
X122058012Y-68460500D01*
X122090925Y-68403493D01*
X122125000Y-68276326D01*
X122125000Y-68210499D01*
X130649341Y-68210499D01*
X130649341Y-68210500D01*
X130669936Y-68445903D01*
X130669938Y-68445913D01*
X130731094Y-68674155D01*
X130731096Y-68674159D01*
X130731097Y-68674163D01*
X130811004Y-68845523D01*
X130830965Y-68888330D01*
X130830967Y-68888334D01*
X130907573Y-68997738D01*
X130966501Y-69081896D01*
X130966506Y-69081902D01*
X131133597Y-69248993D01*
X131133603Y-69248998D01*
X131319158Y-69378925D01*
X131362783Y-69433502D01*
X131369977Y-69503000D01*
X131338454Y-69565355D01*
X131319158Y-69582075D01*
X131133597Y-69712005D01*
X130966505Y-69879097D01*
X130830965Y-70072669D01*
X130830964Y-70072671D01*
X130731098Y-70286835D01*
X130731094Y-70286844D01*
X130669938Y-70515086D01*
X130669936Y-70515096D01*
X130649341Y-70750499D01*
X130649341Y-70750500D01*
X130669936Y-70985903D01*
X130669938Y-70985913D01*
X130731094Y-71214155D01*
X130731096Y-71214159D01*
X130731097Y-71214163D01*
X130735000Y-71222532D01*
X130830965Y-71428330D01*
X130830967Y-71428334D01*
X130939281Y-71583021D01*
X130966505Y-71621901D01*
X131133599Y-71788995D01*
X131230384Y-71856765D01*
X131327165Y-71924532D01*
X131327167Y-71924533D01*
X131327170Y-71924535D01*
X131541337Y-72024403D01*
X131541343Y-72024404D01*
X131541344Y-72024405D01*
X131596285Y-72039126D01*
X131769592Y-72085563D01*
X131957918Y-72102039D01*
X132004999Y-72106159D01*
X132005000Y-72106159D01*
X132005001Y-72106159D01*
X132044234Y-72102726D01*
X132240408Y-72085563D01*
X132468663Y-72024403D01*
X132682830Y-71924535D01*
X132876401Y-71788995D01*
X133043495Y-71621901D01*
X133173425Y-71436342D01*
X133228002Y-71392717D01*
X133297500Y-71385523D01*
X133359855Y-71417046D01*
X133376575Y-71436342D01*
X133506500Y-71621895D01*
X133506505Y-71621901D01*
X133673599Y-71788995D01*
X133770384Y-71856765D01*
X133867165Y-71924532D01*
X133867167Y-71924533D01*
X133867170Y-71924535D01*
X134081337Y-72024403D01*
X134081343Y-72024404D01*
X134081344Y-72024405D01*
X134136285Y-72039126D01*
X134309592Y-72085563D01*
X134497918Y-72102039D01*
X134544999Y-72106159D01*
X134545000Y-72106159D01*
X134545001Y-72106159D01*
X134584234Y-72102726D01*
X134780408Y-72085563D01*
X135008663Y-72024403D01*
X135222830Y-71924535D01*
X135416401Y-71788995D01*
X135583495Y-71621901D01*
X135713425Y-71436342D01*
X135768002Y-71392717D01*
X135837500Y-71385523D01*
X135899855Y-71417046D01*
X135916575Y-71436342D01*
X136046500Y-71621895D01*
X136046505Y-71621901D01*
X136213599Y-71788995D01*
X136310384Y-71856765D01*
X136407165Y-71924532D01*
X136407167Y-71924533D01*
X136407170Y-71924535D01*
X136621337Y-72024403D01*
X136621343Y-72024404D01*
X136621344Y-72024405D01*
X136676285Y-72039126D01*
X136849592Y-72085563D01*
X137037918Y-72102039D01*
X137084999Y-72106159D01*
X137085000Y-72106159D01*
X137085001Y-72106159D01*
X137124234Y-72102726D01*
X137320408Y-72085563D01*
X137548663Y-72024403D01*
X137762830Y-71924535D01*
X137956401Y-71788995D01*
X138123495Y-71621901D01*
X138253425Y-71436342D01*
X138308002Y-71392717D01*
X138377500Y-71385523D01*
X138439855Y-71417046D01*
X138456575Y-71436342D01*
X138586500Y-71621895D01*
X138586505Y-71621901D01*
X138753599Y-71788995D01*
X138850384Y-71856765D01*
X138947165Y-71924532D01*
X138947167Y-71924533D01*
X138947170Y-71924535D01*
X139161337Y-72024403D01*
X139161343Y-72024404D01*
X139161344Y-72024405D01*
X139216285Y-72039126D01*
X139389592Y-72085563D01*
X139577918Y-72102039D01*
X139624999Y-72106159D01*
X139625000Y-72106159D01*
X139625001Y-72106159D01*
X139664234Y-72102726D01*
X139860408Y-72085563D01*
X140088663Y-72024403D01*
X140302830Y-71924535D01*
X140496401Y-71788995D01*
X140663495Y-71621901D01*
X140799035Y-71428330D01*
X140898903Y-71214163D01*
X140960063Y-70985908D01*
X140980659Y-70750500D01*
X140960063Y-70515092D01*
X140898903Y-70286837D01*
X140799035Y-70072671D01*
X140793424Y-70064658D01*
X140663496Y-69879100D01*
X140615029Y-69830633D01*
X140541179Y-69756783D01*
X140507696Y-69695463D01*
X140512680Y-69625771D01*
X140554551Y-69569837D01*
X140585529Y-69552922D01*
X140717086Y-69503854D01*
X140717093Y-69503850D01*
X140832187Y-69417690D01*
X140832190Y-69417687D01*
X140918350Y-69302593D01*
X140918354Y-69302586D01*
X140968596Y-69167879D01*
X140968598Y-69167872D01*
X140974999Y-69108344D01*
X140975000Y-69108327D01*
X140975000Y-68460500D01*
X140058012Y-68460500D01*
X140090925Y-68403493D01*
X140125000Y-68276326D01*
X140125000Y-68144674D01*
X140090925Y-68017507D01*
X140058012Y-67960500D01*
X140975000Y-67960500D01*
X140975000Y-67312672D01*
X140974999Y-67312655D01*
X140968598Y-67253127D01*
X140968596Y-67253120D01*
X140918354Y-67118413D01*
X140918350Y-67118406D01*
X140832190Y-67003312D01*
X140832187Y-67003309D01*
X140717093Y-66917149D01*
X140717086Y-66917145D01*
X140582379Y-66866903D01*
X140582372Y-66866901D01*
X140522844Y-66860500D01*
X139875000Y-66860500D01*
X139875000Y-67777488D01*
X139817993Y-67744575D01*
X139690826Y-67710500D01*
X139559174Y-67710500D01*
X139432007Y-67744575D01*
X139375000Y-67777488D01*
X139375000Y-66860500D01*
X138727155Y-66860500D01*
X138667627Y-66866901D01*
X138667620Y-66866903D01*
X138532913Y-66917145D01*
X138532906Y-66917149D01*
X138417812Y-67003309D01*
X138417809Y-67003312D01*
X138331649Y-67118406D01*
X138331645Y-67118413D01*
X138282578Y-67249970D01*
X138240707Y-67305904D01*
X138175242Y-67330321D01*
X138106969Y-67315469D01*
X138078715Y-67294319D01*
X138034366Y-67249970D01*
X137956401Y-67172005D01*
X137956397Y-67172002D01*
X137956396Y-67172001D01*
X137762834Y-67036467D01*
X137762830Y-67036465D01*
X137670303Y-66993319D01*
X137548663Y-66936597D01*
X137548659Y-66936596D01*
X137548655Y-66936594D01*
X137320413Y-66875438D01*
X137320403Y-66875436D01*
X137085001Y-66854841D01*
X137084999Y-66854841D01*
X136849596Y-66875436D01*
X136849586Y-66875438D01*
X136749126Y-66902356D01*
X136679276Y-66900693D01*
X136629352Y-66870262D01*
X136561819Y-66802729D01*
X136528334Y-66741406D01*
X136525500Y-66715048D01*
X136525500Y-65744854D01*
X136544507Y-65678881D01*
X136625788Y-65549524D01*
X136643119Y-65499996D01*
X136685368Y-65379255D01*
X136691960Y-65320750D01*
X136705565Y-65200003D01*
X136705565Y-65199996D01*
X136685369Y-65020750D01*
X136685368Y-65020745D01*
X136677605Y-64998560D01*
X136625789Y-64850478D01*
X136529816Y-64697738D01*
X136402262Y-64570184D01*
X136378321Y-64555141D01*
X136249523Y-64474211D01*
X136079254Y-64414631D01*
X136079249Y-64414630D01*
X135900004Y-64394435D01*
X135899996Y-64394435D01*
X135720750Y-64414630D01*
X135720745Y-64414631D01*
X135550476Y-64474211D01*
X135397737Y-64570184D01*
X135270184Y-64697737D01*
X135174211Y-64850476D01*
X135114631Y-65020745D01*
X135114630Y-65020750D01*
X135094435Y-65199996D01*
X135094435Y-65200003D01*
X135114630Y-65379249D01*
X135114631Y-65379254D01*
X135174211Y-65549524D01*
X135255493Y-65678881D01*
X135274500Y-65744854D01*
X135274500Y-66865918D01*
X135254815Y-66932957D01*
X135202011Y-66978712D01*
X135132853Y-66988656D01*
X135098095Y-66978300D01*
X135088646Y-66973894D01*
X135008663Y-66936597D01*
X135008659Y-66936596D01*
X135008655Y-66936594D01*
X134780413Y-66875438D01*
X134780403Y-66875436D01*
X134545001Y-66854841D01*
X134544999Y-66854841D01*
X134309596Y-66875436D01*
X134309586Y-66875438D01*
X134081344Y-66936594D01*
X134081335Y-66936598D01*
X133867171Y-67036464D01*
X133867169Y-67036465D01*
X133673597Y-67172005D01*
X133506505Y-67339097D01*
X133376575Y-67524658D01*
X133321998Y-67568283D01*
X133252500Y-67575477D01*
X133190145Y-67543954D01*
X133173425Y-67524658D01*
X133043494Y-67339097D01*
X132876402Y-67172006D01*
X132876395Y-67172001D01*
X132853413Y-67155909D01*
X132799854Y-67118406D01*
X132682834Y-67036467D01*
X132682830Y-67036465D01*
X132590303Y-66993319D01*
X132468663Y-66936597D01*
X132468659Y-66936596D01*
X132468655Y-66936594D01*
X132240413Y-66875438D01*
X132240403Y-66875436D01*
X132005001Y-66854841D01*
X132004999Y-66854841D01*
X131769596Y-66875436D01*
X131769586Y-66875438D01*
X131541344Y-66936594D01*
X131541335Y-66936598D01*
X131327171Y-67036464D01*
X131327169Y-67036465D01*
X131133597Y-67172005D01*
X130966505Y-67339097D01*
X130830965Y-67532669D01*
X130830964Y-67532671D01*
X130731098Y-67746835D01*
X130731094Y-67746844D01*
X130669938Y-67975086D01*
X130669936Y-67975096D01*
X130649341Y-68210499D01*
X122125000Y-68210499D01*
X122125000Y-68144674D01*
X122090925Y-68017507D01*
X122058012Y-67960500D01*
X122975000Y-67960500D01*
X122975000Y-67312672D01*
X122974999Y-67312655D01*
X122968598Y-67253127D01*
X122968596Y-67253120D01*
X122918354Y-67118413D01*
X122918350Y-67118406D01*
X122832190Y-67003312D01*
X122832187Y-67003309D01*
X122717093Y-66917149D01*
X122717086Y-66917145D01*
X122582379Y-66866903D01*
X122582372Y-66866901D01*
X122522844Y-66860500D01*
X121875000Y-66860500D01*
X121875000Y-67777488D01*
X121817993Y-67744575D01*
X121690826Y-67710500D01*
X121559174Y-67710500D01*
X121432007Y-67744575D01*
X121375000Y-67777488D01*
X121375000Y-66860500D01*
X121137403Y-66860500D01*
X121070364Y-66840815D01*
X121024609Y-66788011D01*
X121022861Y-66783998D01*
X121004312Y-66739215D01*
X120942119Y-66646137D01*
X120921241Y-66579460D01*
X120939725Y-66512080D01*
X120991704Y-66465389D01*
X120997750Y-66462693D01*
X121017987Y-66454311D01*
X121120434Y-66385858D01*
X121207559Y-66298733D01*
X121276012Y-66196286D01*
X121323164Y-66082452D01*
X121347201Y-65961606D01*
X121347201Y-65499996D01*
X124894435Y-65499996D01*
X124894435Y-65500003D01*
X124914630Y-65679249D01*
X124914631Y-65679254D01*
X124974211Y-65849523D01*
X125055728Y-65979255D01*
X125070184Y-66002262D01*
X125197738Y-66129816D01*
X125221117Y-66144506D01*
X125303519Y-66196283D01*
X125350478Y-66225789D01*
X125511374Y-66282089D01*
X125520745Y-66285368D01*
X125520750Y-66285369D01*
X125699996Y-66305565D01*
X125700000Y-66305565D01*
X125700004Y-66305565D01*
X125879249Y-66285369D01*
X125879252Y-66285368D01*
X125879255Y-66285368D01*
X126049522Y-66225789D01*
X126178883Y-66144505D01*
X126244855Y-66125500D01*
X129660145Y-66125500D01*
X129726117Y-66144506D01*
X129808519Y-66196283D01*
X129855478Y-66225789D01*
X130016374Y-66282089D01*
X130025745Y-66285368D01*
X130025750Y-66285369D01*
X130204996Y-66305565D01*
X130205000Y-66305565D01*
X130205004Y-66305565D01*
X130384249Y-66285369D01*
X130384252Y-66285368D01*
X130384255Y-66285368D01*
X130554522Y-66225789D01*
X130707262Y-66129816D01*
X130834816Y-66002262D01*
X130930789Y-65849522D01*
X130990368Y-65679255D01*
X130996960Y-65620750D01*
X131010565Y-65500003D01*
X131010565Y-65499996D01*
X130990369Y-65320750D01*
X130990368Y-65320745D01*
X130930789Y-65150478D01*
X130912238Y-65120955D01*
X130834815Y-64997737D01*
X130707262Y-64870184D01*
X130554523Y-64774211D01*
X130384254Y-64714631D01*
X130384249Y-64714630D01*
X130205004Y-64694435D01*
X130204996Y-64694435D01*
X130025750Y-64714630D01*
X130025745Y-64714631D01*
X129855476Y-64774211D01*
X129726117Y-64855494D01*
X129660145Y-64874500D01*
X126244855Y-64874500D01*
X126178883Y-64855494D01*
X126049523Y-64774211D01*
X125879254Y-64714631D01*
X125879249Y-64714630D01*
X125700004Y-64694435D01*
X125699996Y-64694435D01*
X125520750Y-64714630D01*
X125520745Y-64714631D01*
X125350476Y-64774211D01*
X125197737Y-64870184D01*
X125070184Y-64997737D01*
X124974211Y-65150476D01*
X124914631Y-65320745D01*
X124914630Y-65320750D01*
X124894435Y-65499996D01*
X121347201Y-65499996D01*
X121347201Y-64395542D01*
X121366886Y-64328503D01*
X121419690Y-64282748D01*
X121488848Y-64272804D01*
X121503292Y-64275766D01*
X121724592Y-64335063D01*
X121901034Y-64350500D01*
X121959999Y-64355659D01*
X121960000Y-64355659D01*
X121960001Y-64355659D01*
X122018966Y-64350500D01*
X122195408Y-64335063D01*
X122423663Y-64273903D01*
X122637830Y-64174035D01*
X122831401Y-64038495D01*
X122998495Y-63871401D01*
X123128730Y-63685405D01*
X123183307Y-63641781D01*
X123252805Y-63634587D01*
X123315160Y-63666110D01*
X123331879Y-63685405D01*
X123461890Y-63871078D01*
X123628917Y-64038105D01*
X123822421Y-64173600D01*
X124036507Y-64273429D01*
X124036516Y-64273433D01*
X124250000Y-64330634D01*
X124250000Y-63433012D01*
X124307007Y-63465925D01*
X124434174Y-63500000D01*
X124565826Y-63500000D01*
X124692993Y-63465925D01*
X124750000Y-63433012D01*
X124750000Y-64330634D01*
X124963483Y-64273433D01*
X124963492Y-64273429D01*
X125177578Y-64173600D01*
X125371082Y-64038105D01*
X125538105Y-63871082D01*
X125668119Y-63685405D01*
X125722696Y-63641781D01*
X125792195Y-63634588D01*
X125854549Y-63666110D01*
X125871269Y-63685405D01*
X126001505Y-63871401D01*
X126168599Y-64038495D01*
X126265384Y-64106265D01*
X126362165Y-64174032D01*
X126362167Y-64174033D01*
X126362170Y-64174035D01*
X126576337Y-64273903D01*
X126576343Y-64273904D01*
X126576344Y-64273905D01*
X126609347Y-64282748D01*
X126804592Y-64335063D01*
X126981034Y-64350500D01*
X127039999Y-64355659D01*
X127040000Y-64355659D01*
X127040001Y-64355659D01*
X127098966Y-64350500D01*
X127275408Y-64335063D01*
X127503663Y-64273903D01*
X127717830Y-64174035D01*
X127911401Y-64038495D01*
X128078495Y-63871401D01*
X128208425Y-63685842D01*
X128263002Y-63642217D01*
X128332500Y-63635023D01*
X128394855Y-63666546D01*
X128411575Y-63685842D01*
X128541281Y-63871082D01*
X128541505Y-63871401D01*
X128708599Y-64038495D01*
X128805384Y-64106265D01*
X128902165Y-64174032D01*
X128902167Y-64174033D01*
X128902170Y-64174035D01*
X129116337Y-64273903D01*
X129116343Y-64273904D01*
X129116344Y-64273905D01*
X129149347Y-64282748D01*
X129344592Y-64335063D01*
X129521034Y-64350500D01*
X129579999Y-64355659D01*
X129580000Y-64355659D01*
X129580001Y-64355659D01*
X129638966Y-64350500D01*
X129815408Y-64335063D01*
X130043663Y-64273903D01*
X130257830Y-64174035D01*
X130451401Y-64038495D01*
X130618495Y-63871401D01*
X130748425Y-63685842D01*
X130803002Y-63642217D01*
X130872500Y-63635023D01*
X130934855Y-63666546D01*
X130951575Y-63685842D01*
X131081281Y-63871082D01*
X131081505Y-63871401D01*
X131248599Y-64038495D01*
X131345384Y-64106265D01*
X131442165Y-64174032D01*
X131442167Y-64174033D01*
X131442170Y-64174035D01*
X131656337Y-64273903D01*
X131656343Y-64273904D01*
X131656344Y-64273905D01*
X131689347Y-64282748D01*
X131884592Y-64335063D01*
X132061034Y-64350500D01*
X132119999Y-64355659D01*
X132120000Y-64355659D01*
X132120001Y-64355659D01*
X132178966Y-64350500D01*
X132355408Y-64335063D01*
X132583663Y-64273903D01*
X132797830Y-64174035D01*
X132991401Y-64038495D01*
X133158495Y-63871401D01*
X133288425Y-63685842D01*
X133343002Y-63642217D01*
X133412500Y-63635023D01*
X133474855Y-63666546D01*
X133491575Y-63685842D01*
X133621281Y-63871082D01*
X133621505Y-63871401D01*
X133788599Y-64038495D01*
X133885384Y-64106265D01*
X133982165Y-64174032D01*
X133982167Y-64174033D01*
X133982170Y-64174035D01*
X134196337Y-64273903D01*
X134196343Y-64273904D01*
X134196344Y-64273905D01*
X134229347Y-64282748D01*
X134424592Y-64335063D01*
X134601034Y-64350500D01*
X134659999Y-64355659D01*
X134660000Y-64355659D01*
X134660001Y-64355659D01*
X134718966Y-64350500D01*
X134895408Y-64335063D01*
X135123663Y-64273903D01*
X135337830Y-64174035D01*
X135531401Y-64038495D01*
X135698495Y-63871401D01*
X135828425Y-63685842D01*
X135883002Y-63642217D01*
X135952500Y-63635023D01*
X136014855Y-63666546D01*
X136031575Y-63685842D01*
X136161281Y-63871082D01*
X136161505Y-63871401D01*
X136328599Y-64038495D01*
X136425384Y-64106265D01*
X136522165Y-64174032D01*
X136522167Y-64174033D01*
X136522170Y-64174035D01*
X136736337Y-64273903D01*
X136736343Y-64273904D01*
X136736344Y-64273905D01*
X136769347Y-64282748D01*
X136964592Y-64335063D01*
X137141034Y-64350500D01*
X137199999Y-64355659D01*
X137200000Y-64355659D01*
X137200001Y-64355659D01*
X137258966Y-64350500D01*
X137435408Y-64335063D01*
X137663663Y-64273903D01*
X137698095Y-64257846D01*
X137767170Y-64247354D01*
X137830955Y-64275872D01*
X137869196Y-64334348D01*
X137874500Y-64370228D01*
X137874500Y-64555145D01*
X137855494Y-64621117D01*
X137774211Y-64750476D01*
X137714631Y-64920745D01*
X137714630Y-64920750D01*
X137694435Y-65099996D01*
X137694435Y-65100003D01*
X137714630Y-65279249D01*
X137714631Y-65279254D01*
X137774211Y-65449523D01*
X137870184Y-65602262D01*
X137997738Y-65729816D01*
X138150478Y-65825789D01*
X138300309Y-65878217D01*
X138320745Y-65885368D01*
X138320750Y-65885369D01*
X138499996Y-65905565D01*
X138500000Y-65905565D01*
X138500004Y-65905565D01*
X138679249Y-65885369D01*
X138679252Y-65885368D01*
X138679255Y-65885368D01*
X138849522Y-65825789D01*
X139002262Y-65729816D01*
X139129816Y-65602262D01*
X139225789Y-65449522D01*
X139285368Y-65279255D01*
X139287138Y-65263545D01*
X139305565Y-65100003D01*
X139305565Y-65099996D01*
X139285369Y-64920750D01*
X139285368Y-64920745D01*
X139262536Y-64855494D01*
X139225789Y-64750478D01*
X139203265Y-64714632D01*
X139144506Y-64621117D01*
X139125500Y-64555145D01*
X139125500Y-64395086D01*
X139145185Y-64328047D01*
X139197989Y-64282292D01*
X139267147Y-64272348D01*
X139281587Y-64275309D01*
X139504592Y-64335063D01*
X139681034Y-64350500D01*
X139739999Y-64355659D01*
X139740000Y-64355659D01*
X139740001Y-64355659D01*
X139798966Y-64350500D01*
X139975408Y-64335063D01*
X140203663Y-64273903D01*
X140417830Y-64174035D01*
X140611401Y-64038495D01*
X140778495Y-63871401D01*
X140908730Y-63685405D01*
X140963307Y-63641781D01*
X141032805Y-63634587D01*
X141095160Y-63666110D01*
X141111879Y-63685405D01*
X141241890Y-63871078D01*
X141408917Y-64038105D01*
X141602421Y-64173600D01*
X141816507Y-64273429D01*
X141816516Y-64273433D01*
X142030000Y-64330634D01*
X142030000Y-63433012D01*
X142087007Y-63465925D01*
X142214174Y-63500000D01*
X142345826Y-63500000D01*
X142472993Y-63465925D01*
X142530000Y-63433012D01*
X142530000Y-64330633D01*
X142743483Y-64273433D01*
X142743492Y-64273429D01*
X142957578Y-64173600D01*
X143151082Y-64038105D01*
X143318105Y-63871082D01*
X143453600Y-63677578D01*
X143553429Y-63463492D01*
X143553432Y-63463486D01*
X143610636Y-63250000D01*
X142713012Y-63250000D01*
X142745925Y-63192993D01*
X142780000Y-63065826D01*
X142780000Y-62934174D01*
X142745925Y-62807007D01*
X142713012Y-62750000D01*
X143610636Y-62750000D01*
X143610635Y-62749999D01*
X143553432Y-62536513D01*
X143553429Y-62536507D01*
X143453600Y-62322422D01*
X143453599Y-62322420D01*
X143318113Y-62128926D01*
X143318108Y-62128920D01*
X143151078Y-61961890D01*
X142965405Y-61831879D01*
X142921780Y-61777302D01*
X142914588Y-61707804D01*
X142946110Y-61645449D01*
X142965406Y-61628730D01*
X142966279Y-61628119D01*
X143151401Y-61498495D01*
X143318495Y-61331401D01*
X143454035Y-61137830D01*
X143553903Y-60923663D01*
X143615063Y-60695408D01*
X143635659Y-60460000D01*
X143615063Y-60224592D01*
X143553903Y-59996337D01*
X143454035Y-59782171D01*
X143448731Y-59774595D01*
X143318494Y-59588597D01*
X143151402Y-59421506D01*
X143151395Y-59421501D01*
X142957834Y-59285967D01*
X142957830Y-59285965D01*
X142957828Y-59285964D01*
X142743663Y-59186097D01*
X142743659Y-59186096D01*
X142743655Y-59186094D01*
X142515413Y-59124938D01*
X142515403Y-59124936D01*
X142280001Y-59104341D01*
X142279999Y-59104341D01*
X142044596Y-59124936D01*
X142044586Y-59124938D01*
X141816344Y-59186094D01*
X141816335Y-59186098D01*
X141602171Y-59285964D01*
X141602169Y-59285965D01*
X141408597Y-59421505D01*
X141241505Y-59588597D01*
X141111575Y-59774158D01*
X141056998Y-59817783D01*
X140987500Y-59824977D01*
X140925145Y-59793454D01*
X140908425Y-59774158D01*
X140778494Y-59588597D01*
X140611402Y-59421506D01*
X140611395Y-59421501D01*
X140417834Y-59285967D01*
X140417830Y-59285965D01*
X140417828Y-59285964D01*
X140203663Y-59186097D01*
X140203659Y-59186096D01*
X140203655Y-59186094D01*
X139975413Y-59124938D01*
X139975403Y-59124936D01*
X139740001Y-59104341D01*
X139739999Y-59104341D01*
X139504596Y-59124936D01*
X139504586Y-59124938D01*
X139276344Y-59186094D01*
X139276335Y-59186098D01*
X139062171Y-59285964D01*
X139062169Y-59285965D01*
X138868597Y-59421505D01*
X138701505Y-59588597D01*
X138571575Y-59774158D01*
X138516998Y-59817783D01*
X138447500Y-59824977D01*
X138385145Y-59793454D01*
X138368425Y-59774158D01*
X138238494Y-59588597D01*
X138071402Y-59421506D01*
X138071395Y-59421501D01*
X137877834Y-59285967D01*
X137877830Y-59285965D01*
X137877828Y-59285964D01*
X137663663Y-59186097D01*
X137663659Y-59186096D01*
X137663655Y-59186094D01*
X137435413Y-59124938D01*
X137435403Y-59124936D01*
X137200001Y-59104341D01*
X137199999Y-59104341D01*
X136964596Y-59124936D01*
X136964586Y-59124938D01*
X136736344Y-59186094D01*
X136736335Y-59186098D01*
X136522171Y-59285964D01*
X136522169Y-59285965D01*
X136328597Y-59421505D01*
X136161508Y-59588594D01*
X136031269Y-59774595D01*
X135976692Y-59818219D01*
X135907193Y-59825412D01*
X135844839Y-59793890D01*
X135828119Y-59774594D01*
X135698113Y-59588926D01*
X135698108Y-59588920D01*
X135531082Y-59421894D01*
X135337578Y-59286399D01*
X135123492Y-59186570D01*
X135123486Y-59186567D01*
X134910000Y-59129364D01*
X134910000Y-60026988D01*
X134852993Y-59994075D01*
X134725826Y-59960000D01*
X134594174Y-59960000D01*
X134467007Y-59994075D01*
X134410000Y-60026988D01*
X134410000Y-59129364D01*
X134409999Y-59129364D01*
X134196513Y-59186567D01*
X134196507Y-59186570D01*
X133982422Y-59286399D01*
X133982420Y-59286400D01*
X133788926Y-59421886D01*
X133788920Y-59421891D01*
X133621891Y-59588920D01*
X133621890Y-59588922D01*
X133491880Y-59774595D01*
X133437303Y-59818219D01*
X133367804Y-59825412D01*
X133305450Y-59793890D01*
X133288730Y-59774594D01*
X133158494Y-59588597D01*
X132991402Y-59421506D01*
X132991395Y-59421501D01*
X132797834Y-59285967D01*
X132797830Y-59285965D01*
X132797828Y-59285964D01*
X132583663Y-59186097D01*
X132583659Y-59186096D01*
X132583655Y-59186094D01*
X132355413Y-59124938D01*
X132355403Y-59124936D01*
X132120001Y-59104341D01*
X132119999Y-59104341D01*
X131884596Y-59124936D01*
X131884586Y-59124938D01*
X131656344Y-59186094D01*
X131656335Y-59186098D01*
X131442171Y-59285964D01*
X131442169Y-59285965D01*
X131248597Y-59421505D01*
X131081508Y-59588594D01*
X130951269Y-59774595D01*
X130896692Y-59818219D01*
X130827193Y-59825412D01*
X130764839Y-59793890D01*
X130748119Y-59774594D01*
X130618113Y-59588926D01*
X130618108Y-59588920D01*
X130451082Y-59421894D01*
X130257578Y-59286399D01*
X130043492Y-59186570D01*
X130043486Y-59186567D01*
X129830000Y-59129364D01*
X129830000Y-60026988D01*
X129772993Y-59994075D01*
X129645826Y-59960000D01*
X129514174Y-59960000D01*
X129387007Y-59994075D01*
X129330000Y-60026988D01*
X129330000Y-59129364D01*
X129329999Y-59129364D01*
X129116513Y-59186567D01*
X129116507Y-59186570D01*
X128902422Y-59286399D01*
X128902420Y-59286400D01*
X128708926Y-59421886D01*
X128708920Y-59421891D01*
X128541891Y-59588920D01*
X128541890Y-59588922D01*
X128411880Y-59774595D01*
X128357303Y-59818219D01*
X128287804Y-59825412D01*
X128225450Y-59793890D01*
X128208730Y-59774594D01*
X128078494Y-59588597D01*
X127911402Y-59421506D01*
X127911395Y-59421501D01*
X127717834Y-59285967D01*
X127717830Y-59285965D01*
X127717828Y-59285964D01*
X127503663Y-59186097D01*
X127503659Y-59186096D01*
X127503655Y-59186094D01*
X127275413Y-59124938D01*
X127275403Y-59124936D01*
X127040001Y-59104341D01*
X127039999Y-59104341D01*
X126804596Y-59124936D01*
X126804586Y-59124938D01*
X126576344Y-59186094D01*
X126576335Y-59186098D01*
X126362171Y-59285964D01*
X126362169Y-59285965D01*
X126168597Y-59421505D01*
X126001505Y-59588597D01*
X125871575Y-59774158D01*
X125816998Y-59817783D01*
X125747500Y-59824977D01*
X125685145Y-59793454D01*
X125668425Y-59774158D01*
X125538494Y-59588597D01*
X125371402Y-59421506D01*
X125371395Y-59421501D01*
X125177834Y-59285967D01*
X125177830Y-59285965D01*
X125177828Y-59285964D01*
X124963663Y-59186097D01*
X124963659Y-59186096D01*
X124963655Y-59186094D01*
X124735413Y-59124938D01*
X124735403Y-59124936D01*
X124500001Y-59104341D01*
X124499999Y-59104341D01*
X124264596Y-59124936D01*
X124264586Y-59124938D01*
X124036344Y-59186094D01*
X124036335Y-59186098D01*
X123822171Y-59285964D01*
X123822169Y-59285965D01*
X123628597Y-59421505D01*
X123461505Y-59588597D01*
X123331575Y-59774158D01*
X123276998Y-59817783D01*
X123207500Y-59824977D01*
X123145145Y-59793454D01*
X123128425Y-59774158D01*
X122998494Y-59588597D01*
X122831402Y-59421506D01*
X122831395Y-59421501D01*
X122637834Y-59285967D01*
X122637830Y-59285965D01*
X122637828Y-59285964D01*
X122423663Y-59186097D01*
X122423659Y-59186096D01*
X122423655Y-59186094D01*
X122195413Y-59124938D01*
X122195403Y-59124936D01*
X121960001Y-59104341D01*
X121959999Y-59104341D01*
X121724596Y-59124936D01*
X121724586Y-59124938D01*
X121496344Y-59186094D01*
X121496335Y-59186098D01*
X121282171Y-59285964D01*
X121282169Y-59285965D01*
X121088597Y-59421505D01*
X120921505Y-59588597D01*
X120791575Y-59774158D01*
X120736998Y-59817783D01*
X120667500Y-59824977D01*
X120605145Y-59793454D01*
X120588425Y-59774158D01*
X120458494Y-59588597D01*
X120291402Y-59421506D01*
X120291395Y-59421501D01*
X120097834Y-59285967D01*
X120097830Y-59285965D01*
X120097828Y-59285964D01*
X119883663Y-59186097D01*
X119883659Y-59186096D01*
X119883655Y-59186094D01*
X119655413Y-59124938D01*
X119655403Y-59124936D01*
X119420001Y-59104341D01*
X119419999Y-59104341D01*
X119184596Y-59124936D01*
X119184586Y-59124938D01*
X118956344Y-59186094D01*
X118956335Y-59186098D01*
X118742171Y-59285964D01*
X118742169Y-59285965D01*
X118548597Y-59421505D01*
X118381508Y-59588594D01*
X118251269Y-59774595D01*
X118196692Y-59818219D01*
X118127193Y-59825412D01*
X118064839Y-59793890D01*
X118048119Y-59774594D01*
X117918113Y-59588926D01*
X117918108Y-59588920D01*
X117751082Y-59421894D01*
X117557578Y-59286399D01*
X117343492Y-59186570D01*
X117343486Y-59186567D01*
X117130000Y-59129364D01*
X117130000Y-60026988D01*
X117072993Y-59994075D01*
X116945826Y-59960000D01*
X116814174Y-59960000D01*
X116687007Y-59994075D01*
X116630000Y-60026988D01*
X116630000Y-59129364D01*
X116629999Y-59129364D01*
X116416513Y-59186567D01*
X116416507Y-59186570D01*
X116202422Y-59286399D01*
X116202420Y-59286400D01*
X116008926Y-59421886D01*
X116008920Y-59421891D01*
X115841891Y-59588920D01*
X115841890Y-59588922D01*
X115711880Y-59774595D01*
X115657303Y-59818219D01*
X115587804Y-59825412D01*
X115525450Y-59793890D01*
X115508730Y-59774594D01*
X115378494Y-59588597D01*
X115211402Y-59421506D01*
X115211395Y-59421501D01*
X115017834Y-59285967D01*
X115017830Y-59285965D01*
X115017828Y-59285964D01*
X114803663Y-59186097D01*
X114803659Y-59186096D01*
X114803655Y-59186094D01*
X114575413Y-59124938D01*
X114575403Y-59124936D01*
X114340001Y-59104341D01*
X114339999Y-59104341D01*
X114104596Y-59124936D01*
X114104586Y-59124938D01*
X113876344Y-59186094D01*
X113876335Y-59186098D01*
X113662171Y-59285964D01*
X113662169Y-59285965D01*
X113468597Y-59421505D01*
X113301505Y-59588597D01*
X113171575Y-59774158D01*
X113116998Y-59817783D01*
X113047500Y-59824977D01*
X112985145Y-59793454D01*
X112968425Y-59774158D01*
X112838494Y-59588597D01*
X112671402Y-59421506D01*
X112671395Y-59421501D01*
X112477834Y-59285967D01*
X112477830Y-59285965D01*
X112477828Y-59285964D01*
X112263663Y-59186097D01*
X112263659Y-59186096D01*
X112263655Y-59186094D01*
X112035413Y-59124938D01*
X112035403Y-59124936D01*
X111800001Y-59104341D01*
X111799999Y-59104341D01*
X111564596Y-59124936D01*
X111564586Y-59124938D01*
X111336344Y-59186094D01*
X111336335Y-59186098D01*
X111122171Y-59285964D01*
X111122169Y-59285965D01*
X110928597Y-59421505D01*
X110761508Y-59588594D01*
X110631269Y-59774595D01*
X110576692Y-59818219D01*
X110507193Y-59825412D01*
X110444839Y-59793890D01*
X110428119Y-59774594D01*
X110298113Y-59588926D01*
X110298108Y-59588920D01*
X110131082Y-59421894D01*
X109937578Y-59286399D01*
X109723492Y-59186570D01*
X109723486Y-59186567D01*
X109510000Y-59129364D01*
X109510000Y-60026988D01*
X109452993Y-59994075D01*
X109325826Y-59960000D01*
X109194174Y-59960000D01*
X109067007Y-59994075D01*
X109010000Y-60026988D01*
X109010000Y-59129364D01*
X109009999Y-59129364D01*
X108796513Y-59186567D01*
X108796507Y-59186570D01*
X108582422Y-59286399D01*
X108582420Y-59286400D01*
X108388926Y-59421886D01*
X108388920Y-59421891D01*
X108221891Y-59588920D01*
X108221890Y-59588922D01*
X108091880Y-59774595D01*
X108037303Y-59818219D01*
X107967804Y-59825412D01*
X107905450Y-59793890D01*
X107888730Y-59774594D01*
X107758494Y-59588597D01*
X107591402Y-59421506D01*
X107591395Y-59421501D01*
X107397834Y-59285967D01*
X107397830Y-59285965D01*
X107397828Y-59285964D01*
X107183663Y-59186097D01*
X107183659Y-59186096D01*
X107183655Y-59186094D01*
X106955413Y-59124938D01*
X106955403Y-59124936D01*
X106720001Y-59104341D01*
X106719999Y-59104341D01*
X106484596Y-59124936D01*
X106484586Y-59124938D01*
X106256344Y-59186094D01*
X106256335Y-59186098D01*
X106042171Y-59285964D01*
X106042169Y-59285965D01*
X105848597Y-59421505D01*
X105681505Y-59588597D01*
X105551575Y-59774158D01*
X105496998Y-59817783D01*
X105427500Y-59824977D01*
X105365145Y-59793454D01*
X105348425Y-59774158D01*
X105218494Y-59588597D01*
X105051402Y-59421506D01*
X105051395Y-59421501D01*
X104857834Y-59285967D01*
X104857830Y-59285965D01*
X104857828Y-59285964D01*
X104643663Y-59186097D01*
X104643659Y-59186096D01*
X104643655Y-59186094D01*
X104415413Y-59124938D01*
X104415403Y-59124936D01*
X104180001Y-59104341D01*
X104179999Y-59104341D01*
X103944596Y-59124936D01*
X103944586Y-59124938D01*
X103716344Y-59186094D01*
X103716335Y-59186098D01*
X103502171Y-59285964D01*
X103502169Y-59285965D01*
X103308597Y-59421505D01*
X103141505Y-59588597D01*
X103011575Y-59774158D01*
X102956998Y-59817783D01*
X102887500Y-59824977D01*
X102825145Y-59793454D01*
X102808425Y-59774158D01*
X102678494Y-59588597D01*
X102511402Y-59421506D01*
X102511395Y-59421501D01*
X102317834Y-59285967D01*
X102317830Y-59285965D01*
X102317828Y-59285964D01*
X102103663Y-59186097D01*
X102103659Y-59186096D01*
X102103655Y-59186094D01*
X101875413Y-59124938D01*
X101875403Y-59124936D01*
X101640001Y-59104341D01*
X101639999Y-59104341D01*
X101404596Y-59124936D01*
X101404586Y-59124938D01*
X101176344Y-59186094D01*
X101176335Y-59186098D01*
X100962171Y-59285964D01*
X100962169Y-59285965D01*
X100768597Y-59421505D01*
X100601508Y-59588594D01*
X100471269Y-59774595D01*
X100416692Y-59818219D01*
X100347193Y-59825412D01*
X100284839Y-59793890D01*
X100268119Y-59774594D01*
X100138113Y-59588926D01*
X100138108Y-59588920D01*
X99971082Y-59421894D01*
X99777578Y-59286399D01*
X99563492Y-59186570D01*
X99563486Y-59186567D01*
X99350000Y-59129364D01*
X99350000Y-60026988D01*
X99292993Y-59994075D01*
X99165826Y-59960000D01*
X99034174Y-59960000D01*
X98907007Y-59994075D01*
X98850000Y-60026988D01*
X98850000Y-59129364D01*
X98849999Y-59129364D01*
X98636513Y-59186567D01*
X98636507Y-59186570D01*
X98422422Y-59286399D01*
X98422420Y-59286400D01*
X98228926Y-59421886D01*
X98228920Y-59421891D01*
X98061891Y-59588920D01*
X98061890Y-59588922D01*
X97931880Y-59774595D01*
X97877303Y-59818219D01*
X97807804Y-59825412D01*
X97745450Y-59793890D01*
X97728730Y-59774594D01*
X97598494Y-59588597D01*
X97431402Y-59421506D01*
X97431395Y-59421501D01*
X97237834Y-59285967D01*
X97237830Y-59285965D01*
X97237828Y-59285964D01*
X97023663Y-59186097D01*
X97023659Y-59186096D01*
X97023655Y-59186094D01*
X96795413Y-59124938D01*
X96795403Y-59124936D01*
X96560001Y-59104341D01*
X96559999Y-59104341D01*
X96324596Y-59124936D01*
X96324586Y-59124938D01*
X96096344Y-59186094D01*
X96096335Y-59186098D01*
X95882171Y-59285964D01*
X95882169Y-59285965D01*
X95688597Y-59421505D01*
X95686922Y-59423181D01*
X95686000Y-59423684D01*
X95684449Y-59424986D01*
X95684187Y-59424674D01*
X95625599Y-59456666D01*
X95599241Y-59459500D01*
X94980758Y-59459500D01*
X94913719Y-59439815D01*
X94893077Y-59423181D01*
X94891402Y-59421506D01*
X94891395Y-59421501D01*
X94697834Y-59285967D01*
X94697830Y-59285965D01*
X94697828Y-59285964D01*
X94483663Y-59186097D01*
X94483659Y-59186096D01*
X94483655Y-59186094D01*
X94255413Y-59124938D01*
X94255403Y-59124936D01*
X94020001Y-59104341D01*
X94019999Y-59104341D01*
X93784596Y-59124936D01*
X93784586Y-59124938D01*
X93556344Y-59186094D01*
X93556335Y-59186098D01*
X93342171Y-59285964D01*
X93342169Y-59285965D01*
X93148600Y-59421503D01*
X93021705Y-59548398D01*
X92990718Y-59569103D01*
X92991462Y-59570494D01*
X92986083Y-59573368D01*
X92822222Y-59682857D01*
X92822214Y-59682863D01*
X92682863Y-59822214D01*
X92682860Y-59822218D01*
X92573371Y-59986079D01*
X92573364Y-59986092D01*
X92497950Y-60168160D01*
X92497947Y-60168170D01*
X92459500Y-60361456D01*
X92459500Y-60361459D01*
X92459500Y-60558541D01*
X92459500Y-60558543D01*
X92459499Y-60558543D01*
X90000500Y-60558543D01*
X90000500Y-56124500D01*
X90020185Y-56057461D01*
X90072989Y-56011706D01*
X90124500Y-56000500D01*
X145375500Y-56000500D01*
X145442539Y-56020185D01*
G37*
%TD.AperFunction*%
%TD*%
M02*
