M48
; DRILL file {KiCad 8.0.2-1} date 2024-05-21T18:09:58-0700
; FORMAT={-:-/ absolute / inch / decimal}
; #@! TF.CreationDate,2024-05-21T18:09:58-07:00
; #@! TF.GenerationSoftware,Kicad,Pcbnew,8.0.2-1
; #@! TF.FileFunction,Plated,1,2,PTH
FMAT,2
INCH
; #@! TA.AperFunction,Plated,PTH,ViaDrill
T1C0.0118
; #@! TA.AperFunction,Plated,PTH,ComponentDrill
T2C0.0394
%
G90
G05
T1
X3.8504Y-2.5079
X4.5498Y-2.5892
X4.5906Y-2.5906
X4.5906Y-3.0236
X4.6772Y-2.5906
X4.7402Y-2.5945
X4.9449Y-2.7362
X4.9449Y-2.9213
X4.9488Y-2.5787
X5.1262Y-2.5787
X5.2992Y-3.0236
X5.3504Y-2.5669
X5.4528Y-2.563
T2
X3.6976Y-2.6969
X3.7016Y-2.3803
X3.7016Y-2.4803
X3.7976Y-2.6969
X3.8016Y-2.3803
X3.8016Y-2.4803
X3.8976Y-2.6969
X3.9016Y-2.3803
X3.9016Y-2.4803
X3.9976Y-2.6969
X4.0016Y-2.3803
X4.0016Y-2.4803
X4.0976Y-2.6969
X4.1016Y-2.3803
X4.1016Y-2.4803
X4.2016Y-2.3803
X4.2016Y-2.4803
X4.3016Y-2.3803
X4.3016Y-2.4803
X4.4016Y-2.3803
X4.4016Y-2.4803
X4.4884Y-2.6855
X4.4884Y-2.7855
X4.5016Y-2.3803
X4.5016Y-2.4803
X4.5884Y-2.6855
X4.5884Y-2.7855
X4.6016Y-2.3803
X4.6016Y-2.4803
X4.6884Y-2.6855
X4.6884Y-2.7855
X4.7016Y-2.3803
X4.7016Y-2.4803
X4.7884Y-2.6855
X4.7884Y-2.7855
X4.8016Y-2.3803
X4.8016Y-2.4803
X4.9016Y-2.3803
X4.9016Y-2.4803
X5.0016Y-2.3803
X5.0016Y-2.4803
X5.1016Y-2.3803
X5.1016Y-2.4803
X5.197Y-2.6855
X5.197Y-2.7855
X5.2016Y-2.3803
X5.2016Y-2.4803
X5.297Y-2.6855
X5.297Y-2.7855
X5.3016Y-2.3803
X5.3016Y-2.4803
X5.397Y-2.6855
X5.397Y-2.7855
X5.4016Y-2.3803
X5.4016Y-2.4803
X5.497Y-2.6855
X5.497Y-2.7855
X5.5016Y-2.3803
X5.5016Y-2.4803
X5.6016Y-2.3803
X5.6016Y-2.4803
M30
