%TF.GenerationSoftware,KiCad,Pcbnew,8.0.2-1*%
%TF.CreationDate,2024-05-21T18:09:58-07:00*%
%TF.ProjectId,pcb,7063622e-6b69-4636-9164-5f7063625858,rev?*%
%TF.SameCoordinates,Original*%
%TF.FileFunction,Legend,Bot*%
%TF.FilePolarity,Positive*%
%FSLAX46Y46*%
G04 Gerber Fmt 4.6, Leading zero omitted, Abs format (unit mm)*
G04 Created by KiCad (PCBNEW 8.0.2-1) date 2024-05-21 18:09:58*
%MOMM*%
%LPD*%
G01*
G04 APERTURE LIST*
%ADD10C,0.150000*%
%ADD11C,0.120000*%
%ADD12R,1.700000X1.700000*%
%ADD13C,1.700000*%
%ADD14O,1.700000X1.700000*%
G04 APERTURE END LIST*
D10*
X90704819Y-61396666D02*
X91419104Y-61396666D01*
X91419104Y-61396666D02*
X91561961Y-61349047D01*
X91561961Y-61349047D02*
X91657200Y-61253809D01*
X91657200Y-61253809D02*
X91704819Y-61110952D01*
X91704819Y-61110952D02*
X91704819Y-61015714D01*
X91704819Y-62396666D02*
X91704819Y-61825238D01*
X91704819Y-62110952D02*
X90704819Y-62110952D01*
X90704819Y-62110952D02*
X90847676Y-62015714D01*
X90847676Y-62015714D02*
X90942914Y-61920476D01*
X90942914Y-61920476D02*
X90990533Y-61825238D01*
D11*
%TO.C,J1*%
X92690000Y-61730000D02*
X92690000Y-59130000D01*
X92690000Y-64330000D02*
X92690000Y-63000000D01*
X94020000Y-64330000D02*
X92690000Y-64330000D01*
X95290000Y-61730000D02*
X92690000Y-61730000D01*
X95290000Y-64330000D02*
X95290000Y-61730000D01*
X143610000Y-59130000D02*
X92690000Y-59130000D01*
X143610000Y-64330000D02*
X95290000Y-64330000D01*
X143610000Y-64330000D02*
X143610000Y-59130000D01*
%TD*%
%LPC*%
D12*
%TO.C,U2*%
X139625000Y-68210500D03*
D13*
X139625000Y-70750500D03*
X137085000Y-68210500D03*
X137085000Y-70750500D03*
X134545000Y-68210500D03*
X134545000Y-70750500D03*
X132005000Y-68210500D03*
X132005000Y-70750500D03*
%TD*%
D12*
%TO.C,J2*%
X93920000Y-68500000D03*
D14*
X96460000Y-68500000D03*
X99000000Y-68500000D03*
X101540000Y-68500000D03*
X104080000Y-68500000D03*
%TD*%
D12*
%TO.C,U1*%
X121625000Y-68210500D03*
D13*
X121625000Y-70750500D03*
X119085000Y-68210500D03*
X119085000Y-70750500D03*
X116545000Y-68210500D03*
X116545000Y-70750500D03*
X114005000Y-68210500D03*
X114005000Y-70750500D03*
%TD*%
D12*
%TO.C,J1*%
X94020000Y-63000000D03*
D14*
X94020000Y-60460000D03*
X96560000Y-63000000D03*
X96560000Y-60460000D03*
X99100000Y-63000000D03*
X99100000Y-60460000D03*
X101640000Y-63000000D03*
X101640000Y-60460000D03*
X104180000Y-63000000D03*
X104180000Y-60460000D03*
X106720000Y-63000000D03*
X106720000Y-60460000D03*
X109260000Y-63000000D03*
X109260000Y-60460000D03*
X111800000Y-63000000D03*
X111800000Y-60460000D03*
X114340000Y-63000000D03*
X114340000Y-60460000D03*
X116880000Y-63000000D03*
X116880000Y-60460000D03*
X119420000Y-63000000D03*
X119420000Y-60460000D03*
X121960000Y-63000000D03*
X121960000Y-60460000D03*
X124500000Y-63000000D03*
X124500000Y-60460000D03*
X127040000Y-63000000D03*
X127040000Y-60460000D03*
X129580000Y-63000000D03*
X129580000Y-60460000D03*
X132120000Y-63000000D03*
X132120000Y-60460000D03*
X134660000Y-63000000D03*
X134660000Y-60460000D03*
X137200000Y-63000000D03*
X137200000Y-60460000D03*
X139740000Y-63000000D03*
X139740000Y-60460000D03*
X142280000Y-63000000D03*
X142280000Y-60460000D03*
%TD*%
%LPD*%
M02*
